<svg xmlns="http://www.w3.org/2000/svg" viewBox="0 0 500 500" role="img" aria-label="sfmc.guide">
  <!-- Round white disc (transparent corners like Google's favicon) -->
  <circle cx="250" cy="250" r="250" fill="#FFFFFF"/>
  <!-- Compass inset slightly so a white rim shows around the points -->
  <g transform="translate(250 250) scale(0.88) translate(-250 -250)">
    <circle cx="250" cy="250" r="145" fill="none" stroke="#102A45" stroke-width="20"/>
    <polygon points="250,25 250,250 210,210" fill="#2563EB"/>
    <polygon points="250,25 290,210 250,250" fill="#0F172A"/>
    <polygon points="250,475 210,290 250,250" fill="#0F172A"/>
    <polygon points="250,475 250,250 290,290" fill="#2563EB"/>
    <polygon points="475,250 290,210 250,250" fill="#2563EB"/>
    <polygon points="475,250 250,250 290,290" fill="#0F172A"/>
    <polygon points="25,250 210,210 250,250" fill="#0F172A"/>
    <polygon points="25,250 250,250 210,290" fill="#2563EB"/>
    <polygon points="370,130 250,250 285,180" fill="#3B82F6"/>
    <polygon points="370,130 320,215 250,250" fill="#1E3A8A"/>
    <polygon points="370,370 250,250 320,285" fill="#1E3A8A"/>
    <polygon points="370,370 285,320 250,250" fill="#0F172A"/>
    <polygon points="130,370 250,250 215,320" fill="#1E3A8A"/>
    <polygon points="130,370 180,285 250,250" fill="#3B82F6"/>
    <polygon points="130,130 250,250 180,215" fill="#3B82F6"/>
    <polygon points="130,130 215,180 250,250" fill="#1E3A8A"/>
    <polygon points="395,105 250,250 222,222" fill="#FB923C"/>
    <polygon points="395,105 278,278 250,250" fill="#EA580C"/>
    <polygon points="105,395 250,250 278,278" fill="#EA580C"/>
    <polygon points="105,395 222,222 250,250" fill="#C2410C"/>
    <circle cx="250" cy="250" r="16" fill="#FFFFFF" stroke="#0F172A" stroke-width="4"/>
  </g>
</svg>
